<svg width="291" height="362" viewBox="0 0 291 362" fill="none" xmlns="http://www.w3.org/2000/svg">
<path d="M36.75 6.005H179.268L284.5 111.092V325.805C284.5 334.153 281.594 341.153 275.612 347.126C269.63 353.1 262.617 356.005 254.25 356.005H36.75C28.3825 356.005 21.3698 353.1 15.3877 347.126C9.40588 341.153 6.5 334.153 6.5 325.805V36.2052C6.5 27.8568 9.40589 20.8575 15.3877 14.8839C21.3698 8.91009 28.3825 6.005 36.75 6.005Z" fill="#131A25" stroke="#475466" stroke-width="12"/>
<path d="M129.918 267.005C125.377 267.005 121.547 263.622 120.986 259.116L119.209 244.828C118.8 241.538 116.556 238.833 113.703 237.145C113.569 237.066 113.436 236.986 113.303 236.905C113.105 236.784 112.907 236.661 112.71 236.538C110.029 234.861 106.707 234.433 103.794 235.663L90.361 241.335C86.1756 243.103 81.3292 241.473 79.0614 237.537L63.4517 210.44C61.1921 206.517 62.1975 201.527 65.7997 198.785L79.217 188.574C80.6481 187.485 81.3209 185.706 81.3209 183.907V178.102C81.3209 176.304 80.6481 174.525 79.217 173.436L65.7997 163.224C62.1975 160.483 61.1921 155.493 63.4517 151.57L79.0613 124.473C81.3292 120.536 86.1756 118.907 90.361 120.675L103.794 126.347C106.707 127.577 110.026 127.143 112.733 125.508C112.958 125.372 113.184 125.238 113.41 125.105C113.565 125.015 113.719 124.925 113.873 124.837C116.674 123.237 118.79 120.55 119.189 117.349L120.986 102.894C121.547 98.3878 125.377 95.005 129.918 95.005H161.082C165.623 95.005 169.453 98.3878 170.014 102.894L171.791 117.182C172.2 120.472 174.444 123.177 177.297 124.865C177.431 124.944 177.564 125.024 177.697 125.105C177.895 125.226 178.093 125.349 178.29 125.472C180.971 127.149 184.293 127.577 187.206 126.347L200.639 120.675C204.824 118.907 209.671 120.536 211.939 124.473L227.548 151.57C229.808 155.493 228.802 160.483 225.2 163.224L211.783 173.436C210.352 174.525 209.679 176.304 209.679 178.102V183.907C209.679 185.683 210.181 187.517 211.593 188.592L224.986 198.785C228.589 201.527 229.594 206.517 227.334 210.44L211.737 237.516C209.464 241.461 204.602 243.088 200.412 241.304L187.217 235.684C184.298 234.441 180.967 234.872 178.251 236.511C178.032 236.644 177.811 236.775 177.59 236.905C177.435 236.995 177.281 237.085 177.127 237.173C174.326 238.773 172.21 241.46 171.811 244.661L170.014 259.116C169.453 263.622 165.623 267.005 161.082 267.005H129.918ZM135.978 241.895C136.529 246.411 140.362 249.805 144.911 249.805H145.949C150.466 249.805 154.283 246.456 154.872 241.978L156.048 233.031C156.526 229.395 159.194 226.488 162.606 225.143C164.881 224.246 167.059 223.185 169.139 221.962C171.193 220.755 173.153 219.41 175.017 217.928C177.877 215.653 181.719 214.817 185.092 216.221L193.358 219.661C197.549 221.406 202.383 219.756 204.633 215.813L205.126 214.949C207.364 211.027 206.349 206.053 202.753 203.321L195.839 198.069C192.742 195.717 191.642 191.634 192.137 187.777C192.422 185.556 192.565 183.298 192.565 181.005C192.565 178.712 192.422 176.454 192.137 174.232C191.642 170.375 192.742 166.293 195.839 163.941L202.753 158.688C206.349 155.957 207.364 150.983 205.126 147.061L204.667 146.257C202.402 142.288 197.524 140.647 193.32 142.439L185.259 145.876C181.805 147.349 177.851 146.454 174.939 144.082C173.098 142.583 171.165 141.238 169.139 140.047C167.076 138.835 164.917 137.782 162.662 136.889C159.224 135.528 156.544 132.582 156.096 128.912L155.022 120.115C154.471 115.599 150.638 112.205 146.089 112.205H145.051C140.534 112.205 136.717 115.554 136.128 120.032L134.952 128.979C134.474 132.615 131.806 135.522 128.394 136.867C126.119 137.764 123.941 138.824 121.861 140.047C119.807 141.255 117.847 142.6 115.983 144.082C113.123 146.357 109.281 147.193 105.908 145.789L97.6424 142.348C93.4514 140.604 88.6173 142.254 86.3673 146.197L85.9037 147.009C83.6527 150.954 84.6932 155.957 88.3301 158.677L95.1669 163.79C98.2687 166.11 99.4088 170.143 98.8826 173.981C98.8761 174.029 98.8696 174.077 98.8632 174.125C98.5779 176.275 98.4353 178.568 98.4353 181.005C98.4353 183.298 98.5779 185.52 98.8632 187.67C98.8718 187.735 98.8806 187.8 98.8896 187.865C99.4182 191.677 98.3012 195.684 95.2364 198.012L88.247 203.321C84.6508 206.053 83.6358 211.027 85.8742 214.949L86.333 215.753C88.5976 219.721 93.4765 221.363 97.6795 219.571L105.741 216.134C109.195 214.661 113.149 215.556 116.061 217.928C117.902 219.427 119.835 220.772 121.861 221.962C123.924 223.175 126.083 224.228 128.338 225.121C131.776 226.481 134.456 229.428 134.904 233.098L135.978 241.895ZM145.928 211.105C154.2 211.105 161.26 208.167 167.107 202.29C172.954 196.413 175.878 189.318 175.878 181.005C175.878 172.692 172.954 165.597 167.107 159.72C161.26 153.843 154.2 150.905 145.928 150.905C137.513 150.905 130.418 153.843 124.642 159.72C118.866 165.597 115.978 172.692 115.978 181.005C115.978 189.318 118.866 196.413 124.642 202.29C130.418 208.167 137.513 211.105 145.928 211.105Z" fill="#475466"/>
</svg>
